<?xml version="1.0" encoding="UTF-8"?> <svg xmlns="http://www.w3.org/2000/svg" width="275" height="319" viewBox="0 0 275 319" fill="none"><g clip-path="url(#clip0_503_1618)"><path d="M213.5 466.5L100.5 491.5C100.5 491.5 96.9715 468.718 96.0001 454C94.0801 424.911 96.2315 397.811 103.5 369.5C103.5 369.5 108.811 344.882 116.5 331C131.603 303.735 154.606 287.556 184 278.5C199.493 273.727 225 272 225 272C232.128 313.146 237.055 354.709 236.5 396.5L209.5 400.5L213.5 466.5Z" fill="#323232"></path><path d="M-53 24.5C-52.2811 4.9714 -55 -25.5 -55 -25.5C-55 -25.5 -27.135 -22.1225 -9.99998 -17C16.6923 -9.02043 42.2071 3.51756 67 16C88.6174 14.4374 109.553 9.54199 131 7.5C147.717 5.90839 174 7.5 174 7.5C173.71 16.1429 174.895 23.6048 179.5 31C188.118 30.8462 215.438 27.0094 210 43L147 90.5L62 80L-49.5 110C-49.5 110 -53.9396 91.8637 -55 80C-56.6658 61.3631 -53.6833 43.0646 -53 24.5Z" fill="#323232"></path><path d="M-66 188.5V112C-7.61703 118.558 64.9363 129.267 123 116C139.357 112.263 154.321 104.224 168.5 95.5C186.961 84.1412 215.015 67.3909 217 43.5C217.638 35.8216 215.117 31.6234 214 24C210.141 -2.33078 206.505 -28.8188 207.5 -55.5C237.405 -49.749 269.608 -45.5689 295.5 -28.5C309.904 -19.0044 319.964 -2.51667 334 6C343.418 11.7142 358.364 14.7422 369 12.5C382.265 9.70344 393.646 -0.861103 402.5 -10.5L421.5 -32.5L440 -10L300.5 143.5C296.209 136.896 287.273 119.233 277.5 125.5C272.506 128.703 274.058 133.568 274 138.5C273.692 164.797 269.447 190.094 262.5 215.5L252.5 213.5L270.5 248L266.5 254.5C224.005 239.502 181.716 223.29 138.5 210.5C109.119 201.804 62.5 191 62.5 191L-66 188.5Z" fill="#323232"></path><path d="M-65 283.5V237.5L170 234.5V277L-65 283.5Z" fill="#323232"></path></g><defs><clipPath id="clip0_503_1618"><rect width="227" height="273" fill="white" transform="translate(24 23)"></rect></clipPath></defs></svg> 