<?xml version="1.0" encoding="UTF-8"?> <svg xmlns="http://www.w3.org/2000/svg" width="1160" height="298" viewBox="0 0 1160 298" fill="none"><g clip-path="url(#clip0_541_3)"><path fill-rule="evenodd" clip-rule="evenodd" d="M1091.75 79.2692C1091.75 63.7905 1089.52 54.2115 1085 50.409C1080.47 46.6027 1070.3 44.7005 1054.36 44.7005V253.693C1068.92 253.693 1078.83 251.791 1084.01 247.985C1089.2 244.18 1091.75 235.326 1091.75 221.484V79.2692ZM893.666 62.8063C893.666 48.8986 887.368 41.9466 874.771 41.9466C862.437 41.9466 856.267 48.8986 856.267 62.8063V235.193C856.267 249.099 862.437 256.053 874.771 256.053C887.368 256.053 893.666 249.099 893.666 235.193V62.8063ZM696.759 62.8063C696.759 48.8986 690.461 41.9466 677.863 41.9466C665.528 41.9466 659.36 48.8986 659.36 62.8063V235.193C659.36 249.099 665.528 256.053 677.863 256.053C690.461 256.053 696.759 249.099 696.759 235.193V62.8063ZM302.157 62.8063C302.157 48.8986 295.857 41.9466 283.262 41.9466C270.926 41.9466 264.758 48.8986 264.758 62.8063V235.193C264.758 249.099 270.926 256.053 283.262 256.053C295.857 256.053 302.157 249.099 302.157 235.193V62.8063ZM35.6383 298H0V250.527C3.26943 265.682 8.892 277.363 16.8692 285.572C21.7922 290.637 28.0501 294.78 35.6383 298ZM1160 249.277V298H1111.35C1113.73 297.582 1116 297.112 1118.13 296.593C1137.55 291.869 1150.68 279.406 1157.5 259.203C1158.45 256.297 1159.28 252.989 1160 249.277ZM1108.94 0.000182408H1160V55.9622C1159.09 51.0563 1157.99 46.6463 1156.71 42.734C1150.15 21.4788 1137.29 7.96663 1118.13 2.19383C1115.31 1.34968 1112.25 0.617209 1108.94 0.000182408ZM925.171 0.000182408H983.889V298H925.171C933.111 295.337 939.538 291.85 944.451 287.54C958.099 275.207 964.922 252.51 964.922 219.45V78.55C964.922 45.4879 958.099 22.7923 944.451 10.4593C939.538 6.1477 933.111 2.66135 925.171 0.000182408ZM728.264 0.000182408H824.52C816.643 2.66135 810.297 6.1477 805.484 10.4593C791.836 22.7923 785.013 45.4879 785.013 78.55V219.45C785.013 252.51 791.836 275.207 805.484 287.54C810.297 291.85 816.643 295.337 824.52 298H728.264C736.202 295.337 742.631 291.85 747.544 287.54C761.19 275.207 768.015 252.51 768.015 219.45V78.55C768.015 45.4879 761.19 22.7923 747.544 10.4593C742.631 6.1477 736.202 2.66135 728.264 0.000182408ZM536.625 0.000182408H627.613C619.735 2.66135 613.39 6.1477 608.577 10.4593C594.929 22.7923 588.106 45.4879 588.106 78.55V219.45C588.106 252.51 594.929 275.207 608.577 287.54C613.39 291.85 619.735 295.337 627.613 298H533.428C558.022 286.121 570.318 258.103 570.318 213.94V132.47H476.625V178.518H499.065V237.947C499.065 241.36 497.817 245.558 495.326 250.544C492.83 255.529 487.779 258.021 480.169 258.021C467.833 258.021 461.665 250.544 461.665 235.588V62.4108C461.665 47.4564 468.094 39.9782 480.954 39.9782C493.029 39.9782 499.065 47.9806 499.065 63.9855V101.376H570.318V71.4655C570.318 40.5025 563.234 19.1185 548.995 7.31172C545.548 4.49535 541.422 2.05946 536.625 0.000182408ZM333.66 0.000182408H427.063C419.972 2.96608 414.269 6.71554 409.962 11.2467C397.431 24.3652 391.197 48.8986 391.197 84.8452V213.94C391.197 247.787 397.956 271.666 411.473 285.572C416.395 290.637 422.654 294.78 430.24 298H333.66C341.6 295.337 348.029 291.85 352.942 287.54C366.588 275.207 373.411 252.51 373.411 219.45V78.55C373.411 45.4879 366.588 22.7923 352.942 10.4593C348.029 6.1477 341.6 2.66135 333.66 0.000182408ZM142.021 0.000182408H233.011C225.134 2.66135 218.786 6.1477 213.973 10.4593C200.327 22.7923 193.502 45.4879 193.502 78.55V219.45C193.502 252.51 200.327 275.207 213.973 287.54C218.786 291.85 225.134 295.337 233.011 298H138.826C163.419 286.121 175.717 258.103 175.717 213.94V132.47H82.0233V178.518H104.461V237.947C104.461 241.36 103.214 245.558 100.721 250.544C98.2276 255.529 93.1768 258.021 85.5656 258.021C73.231 258.021 67.062 250.544 67.062 235.588V62.4108C67.062 47.4564 73.4921 39.9782 86.3532 39.9782C98.4265 39.9782 104.461 47.9806 104.461 63.9855V101.376H175.717V71.4655C175.717 40.5025 168.631 19.1185 154.392 7.31172C150.944 4.49535 146.819 2.05946 142.021 0.000182408ZM0 0.000182408H32.4606C25.3686 2.96608 19.6669 6.71554 15.3606 11.2467C8.17244 18.7722 3.05571 30.0547 0 45.0942V0.000182408Z" fill="#F7F7F7"></path></g><defs><clipPath id="clip0_541_3"><rect width="1160" height="298" fill="white"></rect></clipPath></defs></svg> 