<?xml version="1.0" encoding="UTF-8"?> <svg xmlns="http://www.w3.org/2000/svg" width="395" height="441" viewBox="0 0 395 441" fill="none"><g filter="url(#filter0_d_503_1598)"><g clip-path="url(#clip0_503_1598)"><g clip-path="url(#clip1_503_1598)"><path d="M234.5 528.5L121.5 553.5C121.5 553.5 117.971 530.718 117 516C115.08 486.911 117.231 459.811 124.5 431.5C124.5 431.5 129.811 406.882 137.5 393C152.603 365.735 175.606 349.556 205 340.5C220.493 335.727 246 334 246 334C253.128 375.146 258.055 416.709 257.5 458.5L230.5 462.5L234.5 528.5Z" fill="#098B44"></path><path d="M-32 86.5C-31.2811 66.9714 -34 36.5 -34 36.5C-34 36.5 -6.13504 39.8775 11 45C37.6923 52.9796 63.2071 65.5176 88 78C109.617 76.4374 130.553 71.542 152 69.5C168.717 67.9084 195 69.5 195 69.5C194.71 78.1429 195.895 85.6048 200.5 93C209.118 92.8462 236.438 89.0094 231 105L168 152.5L83 142L-28.5 172C-28.5 172 -32.9396 153.864 -34 142C-35.6658 123.363 -32.6833 105.065 -32 86.5Z" fill="#098B44"></path><path d="M-45 250.5V174C13.383 180.558 85.9363 191.267 144 178C160.357 174.263 175.321 166.224 189.5 157.5C207.961 146.141 236.015 129.391 238 105.5C238.638 97.8216 236.117 93.6234 235 86C231.141 59.6692 227.505 33.1812 228.5 6.5C258.405 12.251 290.608 16.4311 316.5 33.5C330.904 42.9956 340.964 59.4833 355 68C364.418 73.7142 379.364 76.7422 390 74.5C403.265 71.7034 414.646 61.1389 423.5 51.5L442.5 29.5L461 52L321.5 205.5C317.209 198.896 308.273 181.233 298.5 187.5C293.506 190.703 295.058 195.568 295 200.5C294.692 226.797 290.447 252.094 283.5 277.5L273.5 275.5L291.5 310L287.5 316.5C245.005 301.502 202.716 285.29 159.5 272.5C130.119 263.804 83.5 253 83.5 253L-45 250.5Z" fill="#098B44"></path><path d="M-44 345.5V299.5L191 296.5V339L-44 345.5Z" fill="#098B44"></path></g></g></g><defs><filter id="filter0_d_503_1598" x="0" y="0" width="395" height="441" filterUnits="userSpaceOnUse" color-interpolation-filters="sRGB"><feFlood flood-opacity="0" result="BackgroundImageFix"></feFlood><feColorMatrix in="SourceAlpha" type="matrix" values="0 0 0 0 0 0 0 0 0 0 0 0 0 0 0 0 0 0 127 0" result="hardAlpha"></feColorMatrix><feOffset></feOffset><feGaussianBlur stdDeviation="30"></feGaussianBlur><feComposite in2="hardAlpha" operator="out"></feComposite><feColorMatrix type="matrix" values="0 0 0 0 0 0 0 0 0 0 0 0 0 0 0 0 0 0 0.05 0"></feColorMatrix><feBlend mode="normal" in2="BackgroundImageFix" result="effect1_dropShadow_503_1598"></feBlend><feBlend mode="normal" in="SourceGraphic" in2="effect1_dropShadow_503_1598" result="shape"></feBlend></filter><clipPath id="clip0_503_1598"><rect width="275" height="321" fill="white" transform="translate(60 60)"></rect></clipPath><clipPath id="clip1_503_1598"><rect width="227" height="273" fill="white" transform="translate(84 84)"></rect></clipPath></defs></svg> 