<?xml version="1.0" encoding="UTF-8"?> <svg xmlns="http://www.w3.org/2000/svg" width="546" height="197" viewBox="0 0 546 197" fill="none"><path fill-rule="evenodd" clip-rule="evenodd" d="M500.907 52.4026C500.907 42.1701 499.434 35.8376 496.443 33.3239C493.452 30.8076 486.732 29.5502 476.196 29.5502V167.71C485.821 167.71 492.367 166.452 495.791 163.936C499.216 161.421 500.907 155.568 500.907 146.418V52.4026ZM370.021 41.5194C370.021 32.3254 365.86 27.7296 357.536 27.7296C349.386 27.7296 345.31 32.3254 345.31 41.5194V155.48C345.31 164.673 349.386 169.27 357.536 169.27C365.86 169.27 370.021 164.673 370.021 155.48V41.5194ZM239.916 41.5194C239.916 32.3254 235.754 27.7296 227.431 27.7296C219.28 27.7296 215.204 32.3254 215.204 41.5194V155.48C215.204 164.673 219.28 169.27 227.431 169.27C235.754 169.27 239.916 164.673 239.916 155.48V41.5194ZM546 164.791V197H513.853C515.429 196.723 516.924 196.413 518.336 196.07C531.168 192.947 539.839 184.708 544.348 171.352C544.974 169.431 545.523 167.244 546 164.791ZM512.262 -0.000137329H546V36.995C545.396 33.7518 544.673 30.8364 543.827 28.2501C539.493 14.1988 530.994 5.2663 518.336 1.45004C516.472 0.891983 514.448 0.407776 512.262 -0.000137329ZM390.838 -0.000137329H429.636V197H390.838C396.084 195.239 400.331 192.935 403.577 190.085C412.595 181.932 417.103 166.928 417.103 145.072V51.9271C417.103 30.0707 412.595 15.0672 403.577 6.91414C400.331 4.06384 396.084 1.75909 390.838 -0.000137329ZM260.732 -0.000137329H324.333C319.128 1.75909 314.935 4.06384 311.756 6.91414C302.738 15.0672 298.23 30.0707 298.23 51.9271V145.072C298.23 166.928 302.738 181.932 311.756 190.085C314.935 192.935 319.128 195.239 324.333 197H260.732C265.977 195.239 270.225 192.935 273.472 190.085C282.488 181.932 286.998 166.928 286.998 145.072V51.9271C286.998 30.0707 282.488 15.0672 273.472 6.91414C270.225 4.06384 265.977 1.75909 260.732 -0.000137329ZM134.108 -0.000137329H194.228C189.023 1.75909 184.83 4.06384 181.65 6.91414C172.632 15.0672 168.124 30.0707 168.124 51.9271V145.072C168.124 166.928 172.632 181.932 181.65 190.085C184.83 192.935 189.023 195.239 194.228 197H131.995C148.246 189.147 156.371 170.625 156.371 141.43V87.5722H94.4633V118.013H109.29V157.301C109.29 159.557 108.466 162.332 106.82 165.628C105.171 168.924 101.834 170.571 96.805 170.571C88.6541 170.571 84.5787 165.628 84.5787 155.741V41.2579C84.5787 31.372 88.8268 26.4283 97.3242 26.4283C105.302 26.4283 109.29 31.7185 109.29 42.299V67.017H156.371V47.2438C156.371 26.7749 151.69 12.6385 142.282 4.83334C140.004 2.97153 137.278 1.36121 134.108 -0.000137329ZM0 -0.000137329H61.7159C57.03 1.96054 53.2623 4.43924 50.4165 7.43468C42.1367 16.1069 38.0175 32.3254 38.0175 56.0887V141.43C38.0175 163.806 42.4832 179.591 51.4147 188.784C54.667 192.132 58.8025 194.871 63.8149 197H0C5.24629 195.239 9.49436 192.935 12.7405 190.085C21.757 181.932 26.2652 166.928 26.2652 145.072V51.9271C26.2652 30.0707 21.757 15.0672 12.7405 6.91414C9.49436 4.06384 5.24629 1.75909 0 -0.000137329Z" fill="#F7F7F7"></path></svg> 