<?xml version="1.0" encoding="UTF-8"?> <svg xmlns="http://www.w3.org/2000/svg" width="98" height="26" viewBox="0 0 98 26" fill="none"><path fill-rule="evenodd" clip-rule="evenodd" d="M92.2345 6.83173C92.2345 5.53318 92.0461 4.72957 91.6636 4.41057C91.2812 4.09125 90.422 3.93167 89.0748 3.93167V21.4646C90.3056 21.4646 91.1425 21.305 91.5803 20.9857C92.0182 20.6665 92.2345 19.9237 92.2345 18.7625V6.83173ZM75.4994 5.45062C75.4994 4.28386 74.9673 3.70064 73.903 3.70064C72.861 3.70064 72.3398 4.28386 72.3398 5.45062V19.9126C72.3398 21.0792 72.861 21.6626 73.903 21.6626C74.9673 21.6626 75.4994 21.0792 75.4994 19.9126V5.45062ZM58.8641 5.45062C58.8641 4.28386 58.332 3.70064 57.2678 3.70064C56.2256 3.70064 55.7045 4.28386 55.7045 5.45062V19.9126C55.7045 21.0792 56.2256 21.6626 57.2678 21.6626C58.332 21.6626 58.8641 21.0792 58.8641 19.9126V5.45062ZM25.5271 5.45062C25.5271 4.28386 24.9948 3.70064 23.9307 3.70064C22.8886 3.70064 22.3675 4.28386 22.3675 5.45062V19.9126C22.3675 21.0792 22.8886 21.6626 23.9307 21.6626C24.9948 21.6626 25.5271 21.0792 25.5271 19.9126V5.45062ZM3.01082 25.1816H0V21.199C0.27621 22.4704 0.751221 23.4504 1.42516 24.1391C1.84106 24.5639 2.36975 24.9115 3.01082 25.1816ZM98 21.0942V25.1816H93.8897C94.0912 25.1465 94.2823 25.1071 94.4629 25.0636C96.1036 24.6673 97.2123 23.6217 97.7887 21.9268C97.8688 21.6831 97.9391 21.4055 98 21.0942ZM93.6862 0.181641H98V4.87645C97.9227 4.46488 97.8303 4.09491 97.7222 3.7667C97.168 1.98354 96.0814 0.849969 94.4629 0.365673C94.2246 0.294855 93.9658 0.233405 93.6862 0.181641ZM78.161 0.181641H83.1217V25.1816H78.161C78.8318 24.9582 79.3748 24.6657 79.7898 24.3042C80.9428 23.2695 81.5192 21.3654 81.5192 18.5919V6.77139C81.5192 3.99773 80.9428 2.09373 79.7898 1.05909C79.3748 0.697375 78.8318 0.404893 78.161 0.181641ZM61.5257 0.181641H69.6577C68.9922 0.404893 68.4561 0.697375 68.0495 1.05909C66.8965 2.09373 66.3201 3.99773 66.3201 6.77139V18.5919C66.3201 21.3654 66.8965 23.2695 68.0495 24.3042C68.4561 24.6657 68.9922 24.9582 69.6577 25.1816H61.5257C62.1963 24.9582 62.7395 24.6657 63.1545 24.3042C64.3074 23.2695 64.884 21.3654 64.884 18.5919V6.77139C64.884 3.99773 64.3074 2.09373 63.1545 1.05909C62.7395 0.697375 62.1963 0.404893 61.5257 0.181641ZM45.3356 0.181641H53.0225C52.357 0.404893 51.8208 0.697375 51.4143 1.05909C50.2613 2.09373 49.6848 3.99773 49.6848 6.77139V18.5919C49.6848 21.3654 50.2613 23.2695 51.4143 24.3042C51.8208 24.6657 52.357 24.9582 53.0225 25.1816H45.0654C47.1432 24.1851 48.182 21.8346 48.182 18.1296V11.2949H40.2666V15.158H42.1623V20.1437C42.1623 20.43 42.0569 20.7822 41.8465 21.2004C41.6357 21.6186 41.2089 21.8277 40.566 21.8277C39.5238 21.8277 39.0027 21.2004 39.0027 19.9457V5.41743C39.0027 4.16287 39.5459 3.53551 40.6324 3.53551C41.6525 3.53551 42.1623 4.20685 42.1623 5.54954V8.68635H48.182V6.17706C48.182 3.57949 47.5835 1.78553 46.3806 0.795027C46.0894 0.558754 45.7409 0.354399 45.3356 0.181641ZM28.1885 0.181641H36.0795C35.4803 0.430457 34.9986 0.745011 34.6347 1.12514C33.5761 2.22568 33.0494 4.28386 33.0494 7.29951V18.1296C33.0494 20.9692 33.6204 22.9724 34.7624 24.1391C35.1782 24.5639 35.707 24.9115 36.3479 25.1816H28.1885C28.8593 24.9582 29.4025 24.6657 29.8175 24.3042C30.9703 23.2695 31.5468 21.3654 31.5468 18.5919V6.77139C31.5468 3.99773 30.9703 2.09373 29.8175 1.05909C29.4025 0.697375 28.8593 0.404893 28.1885 0.181641ZM11.9984 0.181641H19.6854C19.0199 0.404893 18.4836 0.697375 18.0771 1.05909C16.9242 2.09373 16.3476 3.99773 16.3476 6.77139V18.5919C16.3476 21.3654 16.9242 23.2695 18.0771 24.3042C18.4836 24.6657 19.0199 24.9582 19.6854 25.1816H11.7284C13.8061 24.1851 14.845 21.8346 14.845 18.1296V11.2949H6.92956V15.158H8.82516V20.1437C8.82516 20.43 8.71982 20.7822 8.50921 21.2004C8.29854 21.6186 7.87183 21.8277 7.22882 21.8277C6.18676 21.8277 5.66558 21.2004 5.66558 19.9457V5.41743C5.66558 4.16287 6.20882 3.53551 7.29536 3.53551C8.31535 3.53551 8.82516 4.20685 8.82516 5.54954V8.68635H14.845V6.17706C14.845 3.57949 14.2465 1.78553 13.0435 0.795027C12.7521 0.558754 12.4037 0.354399 11.9984 0.181641ZM0 0.181641H2.74236C2.14321 0.430457 1.66151 0.745011 1.29771 1.12514C0.690431 1.75647 0.258154 2.70299 0 3.9647V0.181641Z" fill="#F7F7F7"></path></svg> 