<?xml version="1.0" encoding="UTF-8"?> <svg xmlns="http://www.w3.org/2000/svg" width="2502" height="643" viewBox="0 0 2502 643" fill="none"><path fill-rule="evenodd" clip-rule="evenodd" d="M2354.8 171.041C2354.8 137.642 2349.99 116.973 2340.23 108.768C2330.47 100.555 2308.53 96.4511 2274.14 96.4511V547.399C2305.56 547.399 2326.93 543.294 2338.1 535.081C2349.28 526.872 2354.8 507.767 2354.8 477.901V171.041ZM1927.55 135.518C1927.55 105.509 1913.96 90.5089 1886.79 90.5089C1860.19 90.5089 1846.88 105.509 1846.88 135.518V507.481C1846.88 537.485 1860.19 552.491 1886.79 552.491C1913.96 552.491 1927.55 537.485 1927.55 507.481V135.518ZM1502.84 135.518C1502.84 105.509 1489.25 90.5089 1462.08 90.5089C1435.47 90.5089 1422.17 105.509 1422.17 135.518V507.481C1422.17 537.485 1435.47 552.491 1462.08 552.491C1489.25 552.491 1502.84 537.485 1502.84 507.481V135.518ZM651.722 135.518C651.722 105.509 638.133 90.5089 610.966 90.5089C584.359 90.5089 571.055 105.509 571.055 135.518V507.481C571.055 537.485 584.359 552.491 610.966 552.491C638.133 552.491 651.722 537.485 651.722 507.481V135.518ZM76.8681 643H0V540.566C7.05181 573.266 19.1791 598.472 36.3851 616.185C47.0035 627.112 60.5011 636.052 76.8681 643ZM2502 537.87V643H2397.06C2402.21 642.097 2407.09 641.084 2411.7 639.964C2453.58 629.772 2481.89 602.878 2496.61 559.287C2498.65 553.017 2500.44 545.878 2502 537.87ZM2391.87 0.000225072H2502V120.751C2500.03 110.165 2497.67 100.649 2494.91 92.2078C2480.76 46.345 2453.02 17.1896 2411.7 4.73352C2405.61 2.91207 2399 1.3316 2391.87 0.000225072ZM1995.5 0.000225072H2122.15V643H1995.5C2012.62 637.253 2026.49 629.73 2037.08 620.431C2066.52 593.82 2081.24 544.846 2081.24 473.511V169.489C2081.24 98.15 2066.52 49.1792 2037.08 22.5681C2026.49 13.2649 2012.62 5.74227 1995.5 0.000225072ZM1570.79 0.000225072H1778.4C1761.41 5.74227 1747.73 13.2649 1737.35 22.5681C1707.91 49.1792 1693.19 98.15 1693.19 169.489V473.511C1693.19 544.846 1707.91 593.82 1737.35 620.431C1747.73 629.73 1761.41 637.253 1778.4 643H1570.79C1587.91 637.253 1601.78 629.73 1612.37 620.431C1641.81 593.82 1656.53 544.846 1656.53 473.511V169.489C1656.53 98.15 1641.81 49.1792 1612.37 22.5681C1601.78 13.2649 1587.91 5.74227 1570.79 0.000225072ZM1157.44 0.000225072H1353.7C1336.71 5.74227 1323.02 13.2649 1312.64 22.5681C1283.2 49.1792 1268.48 98.15 1268.48 169.489V473.511C1268.48 544.846 1283.2 593.82 1312.64 620.431C1323.02 629.73 1336.71 637.253 1353.7 643H1150.55C1203.6 617.368 1230.12 556.913 1230.12 461.623V285.832H1028.03V385.191H1076.43V513.423C1076.43 520.788 1073.74 529.845 1068.37 540.602C1062.98 551.36 1052.09 556.737 1035.67 556.737C1009.07 556.737 995.763 540.602 995.763 508.331V134.665C995.763 102.397 1009.63 86.2616 1037.37 86.2616C1063.41 86.2616 1076.43 103.529 1076.43 138.063V218.741H1230.12V154.202C1230.12 87.3929 1214.84 41.2523 1184.13 15.7765C1176.69 9.69958 1167.79 4.44357 1157.44 0.000225072ZM719.67 0.000225072H921.131C905.835 6.39979 893.536 14.4901 884.246 24.2671C857.218 52.573 843.772 105.509 843.772 183.072V461.623C843.772 534.655 858.35 586.179 887.505 616.185C898.122 627.112 911.621 636.052 927.983 643H719.67C736.795 637.253 750.663 629.73 761.259 620.431C790.692 593.82 805.409 544.846 805.409 473.511V169.489C805.409 98.15 790.692 49.1792 761.259 22.5681C750.663 13.2649 736.795 5.74227 719.67 0.000225072ZM306.326 0.000225072H502.581C485.59 5.74227 471.898 13.2649 461.518 22.5681C432.085 49.1792 417.365 98.15 417.365 169.489V473.511C417.365 544.846 432.085 593.82 461.518 620.431C471.898 629.73 485.59 637.253 502.581 643H299.433C352.479 617.368 379.003 556.913 379.003 461.623V285.832H176.916V385.191H225.312V513.423C225.312 520.788 222.622 529.845 217.245 540.602C211.867 551.36 200.973 556.737 184.556 556.737C157.952 556.737 144.646 540.602 144.646 508.331V134.665C144.646 102.397 158.515 86.2616 186.255 86.2616C212.296 86.2616 225.312 103.529 225.312 138.063V218.741H379.003V154.202C379.003 87.3929 363.721 41.2523 333.008 15.7765C325.57 9.69958 316.674 4.44357 306.326 0.000225072ZM0 0.000225072H70.0141C54.7174 6.39979 42.4195 14.4901 33.1312 24.2671C17.6271 40.5049 6.59084 64.8494 0 97.3006V0.000225072Z" fill="#F7F7F7"></path></svg> 