<?xml version="1.0" encoding="UTF-8"?> <svg xmlns="http://www.w3.org/2000/svg" width="494" height="520" viewBox="0 0 494 520" fill="none"><g clip-path="url(#clip0_606_118)" filter="url(#filter0_d_606_118)"><rect x="60" y="60" width="373" height="403" fill="#2C2C2C"></rect><path d="M53.3972 189.543C35.9647 187.441 8.64624 185.192 8.64624 185.192C-0.789736 151.413 -5.3882 116.957 -7.51384 82.0159L82.6097 78.9082C137.24 87.8411 178.127 122.727 215.62 160.952C201.649 164.7 182.001 166.81 170.247 175.869C160.341 183.503 156.531 193.935 155.952 206.324L111.822 200.73C92.485 195.082 73.3416 191.947 53.3972 189.543Z" fill="#323232"></path><path d="M11.1324 40.3725L8.64624 -5C8.64624 -5 34.6621 -0.217654 51.5326 0.593874C71.3837 1.54877 91.4126 0.206111 111.201 -1.27075C111.201 -1.27075 127.199 -2.50456 136.684 0.593874C140.198 1.74188 145.385 4.32312 145.385 4.32312C196.397 7.00214 247.352 10.354 298.285 14.2678C297.064 32.929 304.206 48.4046 317.552 61.5049L294.555 154.115C270.345 146.743 243.267 135.56 217.484 137.333L155.952 81.3943C155.952 81.3943 148.916 69.8466 142.278 64.6126C123.869 50.0997 93.8768 44.7449 71.4219 43.4802C51.1488 42.3384 31.4201 43.1206 11.1324 40.3725Z" fill="#323232"></path><path d="M6.16008 255.426C7.05366 231.15 3.67391 193.271 3.67391 193.271C3.67391 193.271 38.3123 197.47 59.6126 203.838C92.7933 213.757 124.51 229.343 155.33 244.859C182.202 242.917 208.227 236.832 234.887 234.293C255.668 232.315 288.34 234.293 288.34 234.293C287.98 245.037 289.452 254.313 295.177 263.506C305.89 263.315 339.85 258.545 333.091 278.423L254.777 337.469L149.115 324.417L10.5109 361.709C10.5109 361.709 4.99207 339.164 3.67391 324.417C1.60319 301.25 5.31061 278.503 6.16008 255.426Z" fill="#323232"></path><path d="M-10 459.292V364.196C62.5749 372.349 152.765 385.66 224.943 369.168C245.276 364.522 263.878 354.53 281.503 343.685C304.452 329.565 339.325 308.743 341.792 279.045C342.586 269.5 339.452 264.281 338.063 254.805C333.266 222.073 328.746 189.146 329.983 155.979C367.158 163.129 407.189 168.325 439.375 189.543C457.28 201.347 469.785 221.842 487.233 232.429C498.94 239.532 517.52 243.296 530.741 240.509C547.23 237.033 561.378 223.9 572.384 211.918L596.003 184.57L619 212.54L445.59 403.353C440.256 395.144 429.147 373.187 416.999 380.978C410.791 384.959 412.72 391.006 412.648 397.138C412.266 429.827 406.988 461.274 398.353 492.855L385.922 490.369L408.297 533.255L403.325 541.335C350.501 522.691 297.932 502.539 244.21 486.64C207.687 475.83 149.736 462.399 149.736 462.399L-10 459.292Z" fill="#323232"></path><rect x="60" y="60" width="24" height="403" fill="#2C2C2C"></rect><rect x="410" y="60" width="24" height="403" fill="#2C2C2C"></rect><rect x="60" y="436" width="374" height="24" fill="#2C2C2C"></rect><rect x="60" y="60" width="373" height="24" fill="#2C2C2C"></rect></g><defs><filter id="filter0_d_606_118" x="0" y="0" width="494" height="520" filterUnits="userSpaceOnUse" color-interpolation-filters="sRGB"><feFlood flood-opacity="0" result="BackgroundImageFix"></feFlood><feColorMatrix in="SourceAlpha" type="matrix" values="0 0 0 0 0 0 0 0 0 0 0 0 0 0 0 0 0 0 127 0" result="hardAlpha"></feColorMatrix><feOffset></feOffset><feGaussianBlur stdDeviation="30"></feGaussianBlur><feComposite in2="hardAlpha" operator="out"></feComposite><feColorMatrix type="matrix" values="0 0 0 0 0 0 0 0 0 0 0 0 0 0 0 0 0 0 0.05 0"></feColorMatrix><feBlend mode="normal" in2="BackgroundImageFix" result="effect1_dropShadow_606_118"></feBlend><feBlend mode="normal" in="SourceGraphic" in2="effect1_dropShadow_606_118" result="shape"></feBlend></filter><clipPath id="clip0_606_118"><rect width="374" height="400" fill="white" transform="translate(60 60)"></rect></clipPath></defs></svg> 