<?xml version="1.0" encoding="UTF-8"?> <svg xmlns="http://www.w3.org/2000/svg" width="275" height="320" viewBox="0 0 275 320" fill="none"><g clip-path="url(#clip0_503_1544)"><path d="M232.5 245.5L119.5 270.5C119.5 270.5 115.971 247.718 115 233C113.08 203.911 115.231 176.811 122.5 148.5C122.5 148.5 127.811 123.882 135.5 110C150.603 82.7349 173.606 66.5565 203 57.5C218.493 52.7265 244 51 244 51C251.128 92.146 256.055 133.709 255.5 175.5L228.5 179.5L232.5 245.5Z" fill="#098B44"></path><path d="M-47 -32.5V-109C11.383 -102.442 83.9363 -91.7332 142 -105C158.357 -108.737 173.321 -116.776 187.5 -125.5C205.961 -136.859 234.015 -153.609 236 -177.5C236.638 -185.178 234.117 -189.377 233 -197C229.141 -223.331 225.505 -249.819 226.5 -276.5C256.405 -270.749 288.608 -266.569 314.5 -249.5C328.904 -240.004 338.964 -223.517 353 -215C362.418 -209.286 377.364 -206.258 388 -208.5C401.265 -211.297 412.646 -221.861 421.5 -231.5L440.5 -253.5L459 -231L319.5 -77.5C315.209 -84.1037 306.273 -101.767 296.5 -95.5C291.506 -92.2975 293.058 -87.4324 293 -82.5C292.692 -56.2031 288.447 -30.9055 281.5 -5.5L271.5 -7.5L289.5 27L285.5 33.5C243.005 18.5019 200.716 2.29025 157.5 -10.5C128.119 -19.1957 81.5 -30 81.5 -30L-47 -32.5Z" fill="#098B44"></path><path d="M-46 62.5V16.5L189 13.5V56L-46 62.5Z" fill="#098B44"></path><path d="M90 183.5L96 75C50.945 76.9254 6.36959 80.3634 -38.5 85L-41 247L44.5 234C47.3851 221.353 52.0805 209.142 61 199.5C69.1655 190.673 78.148 185.532 90 183.5Z" fill="#098B44"></path></g><defs><clipPath id="clip0_503_1544"><rect width="227" height="273" fill="white" transform="translate(24 23)"></rect></clipPath></defs></svg> 