<?xml version="1.0" encoding="UTF-8"?> <svg xmlns="http://www.w3.org/2000/svg" width="395" height="441" viewBox="0 0 395 441" fill="none"><g filter="url(#filter0_d_567_2)"><g clip-path="url(#clip0_567_2)"><g clip-path="url(#clip1_567_2)"><path d="M37 163.5C22.9764 161.809 1 160 1 160C-6.59078 132.827 -10.29 105.108 -12 77L60.5 74.5C104.447 81.6861 137.339 109.75 167.5 140.5C156.261 143.515 140.456 145.213 131 152.5C123.031 158.641 119.966 167.034 119.5 177L84 172.5C68.4442 167.956 53.0443 165.434 37 163.5Z" fill="#098B44"></path><path d="M3 43.5L1 7C1 7 21.9285 10.8472 35.5 11.5C51.4692 12.2682 67.5816 11.1881 83.5 10C83.5 10 96.3696 9.00746 104 11.5C106.827 12.4235 111 14.5 111 14.5C152.036 16.6551 193.028 19.3515 234 22.5C233.018 37.5121 238.764 49.9614 249.5 60.5L231 135C211.524 129.07 189.741 120.074 169 121.5L119.5 76.5C119.5 76.5 113.84 67.2104 108.5 63C93.6915 51.325 69.5638 47.0174 51.5 46C35.1912 45.0815 19.3205 45.7107 3 43.5Z" fill="#098B44"></path><path d="M-0.999979 216.5C-0.281135 196.971 -2.99998 166.5 -2.99998 166.5C-2.99998 166.5 24.865 169.878 42 175C68.6923 182.98 94.2071 195.518 119 208C140.617 206.437 161.553 201.542 183 199.5C199.717 197.908 226 199.5 226 199.5C225.71 208.143 226.895 215.605 231.5 223C240.118 222.846 267.438 219.009 262 235L199 282.5L114 272L2.50002 302C2.50002 302 -1.93958 283.864 -2.99998 272C-4.66577 253.363 -1.68334 235.065 -0.999979 216.5Z" fill="#098B44"></path><path d="M-14 380.5V304C44.383 310.558 116.936 321.267 175 308C191.357 304.263 206.321 296.224 220.5 287.5C238.961 276.141 267.015 259.391 269 235.5C269.638 227.822 267.117 223.623 266 216C262.141 189.669 258.505 163.181 259.5 136.5C289.405 142.251 321.608 146.431 347.5 163.5C361.904 172.996 371.964 189.483 386 198C395.418 203.714 410.364 206.742 421 204.5C434.265 201.703 445.646 191.139 454.5 181.5L473.5 159.5L492 182L352.5 335.5C348.209 328.896 339.273 311.233 329.5 317.5C324.506 320.703 326.058 325.568 326 330.5C325.692 356.797 321.447 382.094 314.5 407.5L304.5 405.5L322.5 440L318.5 446.5C276.005 431.502 233.716 415.29 190.5 402.5C161.119 393.804 114.5 383 114.5 383L-14 380.5Z" fill="#098B44"></path></g></g></g><defs><filter id="filter0_d_567_2" x="0" y="0" width="395" height="441" filterUnits="userSpaceOnUse" color-interpolation-filters="sRGB"><feFlood flood-opacity="0" result="BackgroundImageFix"></feFlood><feColorMatrix in="SourceAlpha" type="matrix" values="0 0 0 0 0 0 0 0 0 0 0 0 0 0 0 0 0 0 127 0" result="hardAlpha"></feColorMatrix><feOffset></feOffset><feGaussianBlur stdDeviation="30"></feGaussianBlur><feComposite in2="hardAlpha" operator="out"></feComposite><feColorMatrix type="matrix" values="0 0 0 0 0 0 0 0 0 0 0 0 0 0 0 0 0 0 0.05 0"></feColorMatrix><feBlend mode="normal" in2="BackgroundImageFix" result="effect1_dropShadow_567_2"></feBlend><feBlend mode="normal" in="SourceGraphic" in2="effect1_dropShadow_567_2" result="shape"></feBlend></filter><clipPath id="clip0_567_2"><rect width="275" height="321" fill="white" transform="translate(60 60)"></rect></clipPath><clipPath id="clip1_567_2"><rect width="227" height="273" fill="white" transform="translate(84 84)"></rect></clipPath></defs></svg> 