<?xml version="1.0" encoding="UTF-8"?> <svg xmlns="http://www.w3.org/2000/svg" width="395" height="439" viewBox="0 0 395 439" fill="none"><g clip-path="url(#clip0_503_1563)" filter="url(#filter0_d_503_1563)"><g clip-path="url(#clip1_503_1563)"><path d="M273.5 526.5L160.5 551.5C160.5 551.5 156.971 528.718 156 514C154.08 484.911 156.231 457.811 163.5 429.5C163.5 429.5 168.811 404.882 176.5 391C191.603 363.735 214.606 347.556 244 338.5C259.493 333.727 285 332 285 332C292.128 373.146 297.055 414.709 296.5 456.5L269.5 460.5L273.5 526.5Z" fill="#323232"></path><path d="M7.00002 84.5C7.71887 64.9714 5.00002 34.5 5.00002 34.5C5.00002 34.5 32.865 37.8775 50 43C76.6923 50.9796 102.207 63.5176 127 76C148.617 74.4374 169.553 69.542 191 67.5C207.717 65.9084 234 67.5 234 67.5C233.71 76.1429 234.895 83.6048 239.5 91C248.118 90.8462 275.438 87.0094 270 103L207 150.5L122 140L10.5 170C10.5 170 6.06042 151.864 5.00002 140C3.33423 121.363 6.31666 103.065 7.00002 84.5Z" fill="#323232"></path><path d="M-6 248.5V172C52.383 178.558 124.936 189.267 183 176C199.357 172.263 214.321 164.224 228.5 155.5C246.961 144.141 275.015 127.391 277 103.5C277.638 95.8216 275.117 91.6234 274 84C270.141 57.6692 266.505 31.1812 267.5 4.5C297.405 10.251 329.608 14.4311 355.5 31.5C369.904 40.9956 379.964 57.4833 394 66C403.418 71.7142 418.364 74.7422 429 72.5C442.265 69.7034 453.646 59.1389 462.5 49.5L481.5 27.5L500 50L360.5 203.5C356.209 196.896 347.273 179.233 337.5 185.5C332.506 188.703 334.058 193.568 334 198.5C333.692 224.797 329.447 250.094 322.5 275.5L312.5 273.5L330.5 308L326.5 314.5C284.005 299.502 241.716 283.29 198.5 270.5C169.119 261.804 122.5 251 122.5 251L-6 248.5Z" fill="#323232"></path><path d="M-5 343.5V297.5L230 294.5V337L-5 343.5Z" fill="#323232"></path></g></g><defs><filter id="filter0_d_503_1563" x="0" y="-1" width="395" height="441" filterUnits="userSpaceOnUse" color-interpolation-filters="sRGB"><feFlood flood-opacity="0" result="BackgroundImageFix"></feFlood><feColorMatrix in="SourceAlpha" type="matrix" values="0 0 0 0 0 0 0 0 0 0 0 0 0 0 0 0 0 0 127 0" result="hardAlpha"></feColorMatrix><feOffset></feOffset><feGaussianBlur stdDeviation="30"></feGaussianBlur><feComposite in2="hardAlpha" operator="out"></feComposite><feColorMatrix type="matrix" values="0 0 0 0 0 0 0 0 0 0 0 0 0 0 0 0 0 0 0.05 0"></feColorMatrix><feBlend mode="normal" in2="BackgroundImageFix" result="effect1_dropShadow_503_1563"></feBlend><feBlend mode="normal" in="SourceGraphic" in2="effect1_dropShadow_503_1563" result="shape"></feBlend></filter><clipPath id="clip0_503_1563"><rect width="275" height="321" fill="white" transform="translate(60 59)"></rect></clipPath><clipPath id="clip1_503_1563"><rect width="227" height="273" fill="white" transform="translate(84 83)"></rect></clipPath></defs></svg> 