<?xml version="1.0" encoding="UTF-8"?> <svg xmlns="http://www.w3.org/2000/svg" width="395" height="441" viewBox="0 0 395 441" fill="none"><g filter="url(#filter0_d_503_1545)"><g clip-path="url(#clip0_503_1545)"><g clip-path="url(#clip1_503_1545)"><path d="M311.5 431.5L198.5 456.5C198.5 456.5 194.971 433.718 194 419C192.08 389.911 194.231 362.811 201.5 334.5C201.5 334.5 206.811 309.882 214.5 296C229.603 268.735 252.606 252.556 282 243.5C297.493 238.727 323 237 323 237C330.128 278.146 335.055 319.709 334.5 361.5L307.5 365.5L311.5 431.5Z" fill="white"></path><path d="M32 153.5V77C90.383 83.5584 162.936 94.2668 221 81C237.357 77.2626 252.321 69.2239 266.5 60.5C284.961 49.1412 313.015 32.3909 315 8.5C315.638 0.82164 313.117 -3.37662 312 -11C308.141 -37.3308 304.505 -63.8188 305.5 -90.5C335.405 -84.749 367.608 -80.5689 393.5 -63.5C407.904 -54.0044 417.964 -37.5167 432 -29C441.418 -23.2858 456.364 -20.2578 467 -22.5C480.265 -25.2966 491.646 -35.8611 500.5 -45.5L519.5 -67.5L538 -45L398.5 108.5C394.209 101.896 385.273 84.2331 375.5 90.5C370.506 93.7025 372.058 98.5676 372 103.5C371.692 129.797 367.447 155.094 360.5 180.5L350.5 178.5L368.5 213L364.5 219.5C322.005 204.502 279.716 188.29 236.5 175.5C207.119 166.804 160.5 156 160.5 156L32 153.5Z" fill="white"></path><path d="M33 248.5V202.5L268 199.5V242L33 248.5Z" fill="white"></path><path d="M169 369.5L175 261C129.945 262.925 85.3696 266.363 40.5 271L38 433L123.5 420C126.385 407.353 131.081 395.142 140 385.5C148.165 376.673 157.148 371.532 169 369.5Z" fill="white"></path></g></g></g><defs><filter id="filter0_d_503_1545" x="0" y="0" width="395" height="441" filterUnits="userSpaceOnUse" color-interpolation-filters="sRGB"><feFlood flood-opacity="0" result="BackgroundImageFix"></feFlood><feColorMatrix in="SourceAlpha" type="matrix" values="0 0 0 0 0 0 0 0 0 0 0 0 0 0 0 0 0 0 127 0" result="hardAlpha"></feColorMatrix><feOffset></feOffset><feGaussianBlur stdDeviation="30"></feGaussianBlur><feComposite in2="hardAlpha" operator="out"></feComposite><feColorMatrix type="matrix" values="0 0 0 0 0 0 0 0 0 0 0 0 0 0 0 0 0 0 0.05 0"></feColorMatrix><feBlend mode="normal" in2="BackgroundImageFix" result="effect1_dropShadow_503_1545"></feBlend><feBlend mode="normal" in="SourceGraphic" in2="effect1_dropShadow_503_1545" result="shape"></feBlend></filter><clipPath id="clip0_503_1545"><rect width="275" height="321" fill="white" transform="translate(60 60)"></rect></clipPath><clipPath id="clip1_503_1545"><rect width="227" height="273" fill="white" transform="translate(84 84)"></rect></clipPath></defs></svg> 