<?xml version="1.0" encoding="UTF-8"?> <svg xmlns="http://www.w3.org/2000/svg" width="284" height="197" viewBox="0 0 284 197" fill="none"><path fill-rule="evenodd" clip-rule="evenodd" d="M199.453 41.5194C199.453 32.3254 195.294 27.7296 186.98 27.7296C178.837 27.7296 174.766 32.3254 174.766 41.5194V155.48C174.766 164.673 178.837 169.27 186.98 169.27C195.294 169.27 199.453 164.673 199.453 155.48V41.5194ZM23.5247 197H0V165.617C2.15814 175.635 5.86958 183.358 11.1353 188.784C14.3849 192.132 18.5158 194.871 23.5247 197ZM220.248 -0.000125587H281.903C277.222 1.96055 273.458 4.43925 270.615 7.43469C262.343 16.107 258.228 32.3254 258.228 56.0887V141.43C258.228 163.806 262.689 179.591 271.612 188.784C274.861 192.132 278.993 194.871 284 197H220.248C225.489 195.239 229.733 192.935 232.976 190.085C241.983 181.932 246.487 166.928 246.487 145.072V51.9271C246.487 30.0707 241.983 15.0672 232.976 6.91415C229.733 4.06385 225.489 1.75911 220.248 -0.000125587ZM93.7478 -0.000125587H153.81C148.61 1.75911 144.42 4.06385 141.243 6.91415C132.235 15.0672 127.73 30.0707 127.73 51.9271V145.072C127.73 166.928 132.235 181.932 141.243 190.085C144.42 192.935 148.61 195.239 153.81 197H91.6385C107.873 189.147 115.99 170.625 115.99 141.43V87.5722H54.1433V118.013H68.9544V157.301C68.9544 159.557 68.1313 162.332 66.4858 165.628C64.8397 168.924 61.5057 170.571 56.4816 170.571C48.3396 170.571 44.2674 165.628 44.2674 155.741V41.2579C44.2674 31.372 48.5119 26.4284 57.0014 26.4284C64.971 26.4284 68.9544 31.7185 68.9544 42.299V67.017H115.99V47.2438C115.99 26.7749 111.313 12.6385 101.914 4.83335C99.6373 2.97154 96.9149 1.36122 93.7478 -0.000125587ZM0 -0.000125587H21.4271C16.7457 1.96055 12.9821 4.43925 10.1395 7.43469C5.3946 12.4096 2.01706 19.8682 0 29.8104V-0.000125587Z" fill="#F7F7F7"></path></svg> 