<?xml version="1.0" encoding="UTF-8"?> <svg xmlns="http://www.w3.org/2000/svg" width="395" height="475" viewBox="0 0 395 475" fill="none"><g filter="url(#filter0_d_571_19)"><g clip-path="url(#clip0_571_19)"><g clip-path="url(#clip1_571_19)"><path d="M-42.7905 108.107C-41.9495 85.2592 -45.1304 49.6089 -45.1304 49.6089C-45.1304 49.6089 -12.5295 53.5605 7.51783 59.5536C38.7467 68.8893 68.5981 83.5583 97.6048 98.1622C122.896 96.3341 147.39 90.6066 172.482 88.2176C192.04 86.3555 222.791 88.2176 222.791 88.2176C222.451 98.3295 223.837 107.06 229.225 115.712C239.308 115.532 271.271 111.043 264.909 129.751L191.202 185.324L91.755 173.04L-38.6956 208.139C-38.6956 208.139 -43.8898 186.92 -45.1304 173.04C-47.0793 151.235 -43.59 129.827 -42.7905 108.107Z" fill="#098B44"></path><path d="M-58 299.98V210.478C10.3058 218.151 95.1903 230.68 163.123 215.158C182.259 210.785 199.767 201.38 216.356 191.174C237.955 177.884 270.776 158.287 273.099 130.336C273.845 121.352 270.896 116.441 269.589 107.522C265.074 76.7157 260.82 45.7258 261.984 14.5098C296.972 21.2382 334.648 26.1287 364.941 46.0987C381.793 57.2082 393.562 76.4982 409.984 86.4623C421.002 93.1477 438.49 96.6904 450.933 94.0671C466.452 90.7952 479.767 78.4351 490.126 67.158L512.356 41.4189L534 67.743L370.791 247.332C365.77 239.606 355.315 218.941 343.881 226.273C338.039 230.019 339.854 235.711 339.787 241.482C339.427 272.248 334.46 301.846 326.332 331.569L314.632 329.229L335.692 369.593L331.012 377.198C281.295 359.65 231.818 340.683 181.257 325.719C146.882 315.546 92.3399 302.905 92.3399 302.905L-58 299.98Z" fill="#098B44"></path><path d="M-56.83 411.126V357.308L218.111 353.798V403.522L-56.83 411.126Z" fill="#098B44"></path></g></g></g><defs><filter id="filter0_d_571_19" x="0" y="0" width="395" height="475" filterUnits="userSpaceOnUse" color-interpolation-filters="sRGB"><feFlood flood-opacity="0" result="BackgroundImageFix"></feFlood><feColorMatrix in="SourceAlpha" type="matrix" values="0 0 0 0 0 0 0 0 0 0 0 0 0 0 0 0 0 0 127 0" result="hardAlpha"></feColorMatrix><feOffset></feOffset><feGaussianBlur stdDeviation="30"></feGaussianBlur><feComposite in2="hardAlpha" operator="out"></feComposite><feColorMatrix type="matrix" values="0 0 0 0 0 0 0 0 0 0 0 0 0 0 0 0 0 0 0.05 0"></feColorMatrix><feBlend mode="normal" in2="BackgroundImageFix" result="effect1_dropShadow_571_19"></feBlend><feBlend mode="normal" in="SourceGraphic" in2="effect1_dropShadow_571_19" result="shape"></feBlend></filter><clipPath id="clip0_571_19"><rect width="275" height="355" fill="white" transform="translate(60 60)"></rect></clipPath><clipPath id="clip1_571_19"><rect width="227" height="307" fill="white" transform="translate(84 84)"></rect></clipPath></defs></svg> 